<svg width="25" height="42" viewBox="0 0 25 42" fill="none" xmlns="http://www.w3.org/2000/svg">
<rect y="4" width="25" height="35" rx="3" fill="#42A5F5"/>
<path d="M16.736 34.36L14.216 30.972C13.4693 31.1213 12.7413 31.196 12.032 31.196C10.184 31.196 8.48533 30.7667 6.936 29.908C5.40533 29.0493 4.18267 27.8547 3.268 26.324C2.372 24.7747 1.924 23.0387 1.924 21.116C1.924 19.1933 2.372 17.4667 3.268 15.936C4.18267 14.4053 5.40533 13.2107 6.936 12.352C8.48533 11.4933 10.184 11.064 12.032 11.064C13.88 11.064 15.5693 11.4933 17.1 12.352C18.6493 13.2107 19.8627 14.4053 20.74 15.936C21.636 17.4667 22.084 19.1933 22.084 21.116C22.084 22.796 21.7387 24.336 21.048 25.736C20.376 27.1173 19.4333 28.2653 18.22 29.18L22.532 34.36H16.736ZM6.824 21.116C6.824 22.852 7.29067 24.2427 8.224 25.288C9.176 26.3147 10.4453 26.828 12.032 26.828C13.6 26.828 14.8507 26.3053 15.784 25.26C16.736 24.2147 17.212 22.8333 17.212 21.116C17.212 19.38 16.736 17.9987 15.784 16.972C14.8507 15.9267 13.6 15.404 12.032 15.404C10.4453 15.404 9.176 15.9173 8.224 16.944C7.29067 17.9707 6.824 19.3613 6.824 21.116Z" fill="white"/>
</svg>
