<svg width="55" height="50" viewBox="0 0 55 50" fill="none" xmlns="http://www.w3.org/2000/svg">
<path d="M35.3943 11.1523C37.4843 15.2753 40.0503 20.3363 41.9753 22.3477C42.3518 21.565 42.3105 20.2563 42.7402 17.0607C43.1286 14.1742 45.7893 13.9004 46.9305 14.105C49.4536 14.5756 50.2236 16.8654 50.1394 17.7096C50.0053 19.0552 49.9985 19.0091 49.7235 22.2616C49.3196 27.0197 51.3735 30.612 51.5625 34.6857C51.5625 42.3626 44.043 46.1349 38.7802 46.1349C34.5693 46.1349 30.3566 43.7236 28.7771 42.5179L20.8794 36.0667C19.9135 35.3947 17.5244 33.1756 16.476 31.8992C13.6177 28.4191 17.7513 26.0231 20.075 26.6244C19.8911 26.4983 18.7894 24.8975 18.2618 24.1132C16.8438 21.565 18.2618 19.8688 19.3102 19.4028C21.6855 18.3463 23.4318 19.535 23.9818 20.184C23.7721 19.8641 23.1121 18.5693 22.0482 16.1949C20.9843 13.8205 22.6978 12.3549 23.6861 11.9182C25.8346 11.0293 27.8764 12.1581 28.3869 13.1684C28.6361 13.6605 29.9853 16.3025 30.5697 17.4682C30.128 16.5024 29.3271 14.5832 29.0435 13.6959C28.4797 11.6045 29.8358 10.1727 30.6952 9.80367C31.8914 9.29157 34.3836 9.15778 35.3702 11.1016L35.3943 11.1523Z" fill="#FFC83D"/>
<path d="M30.5628 10.6341C30.745 10.1112 30.9942 9.79443 31.1833 9.63757C31.0034 9.68473 30.8407 9.74009 30.6952 9.80366C29.8358 10.1727 28.4797 11.606 29.0452 13.6959C29.3271 14.5832 30.128 16.5024 30.5714 17.4682L30.3583 17.0468C31.3277 19.0383 32.536 21.1836 33.4469 22.5676C33.5625 22.7434 33.7513 22.8709 33.972 22.9221C34.1926 22.9733 34.4269 22.944 34.6234 22.8406C34.8199 22.7372 34.9624 22.5682 35.0196 22.3708C35.0768 22.1734 35.044 21.9637 34.9285 21.788C33.4503 19.5412 31.2022 15.2753 30.5577 13.1577C30.2976 12.3329 30.2993 11.458 30.5628 10.6341ZM18.2617 24.1132C18.6605 24.7068 19.3875 25.7663 19.7983 26.3015C20.3414 26.8859 20.9361 27.4472 21.5377 27.9808C22.2252 28.5882 22.9385 29.1757 23.6139 29.7324L23.6707 29.7785C24.3685 30.3537 25.0199 30.8934 25.5853 31.4055C25.6647 31.4774 25.7591 31.5346 25.8631 31.5739C25.9672 31.6132 26.0788 31.6337 26.1917 31.6343C26.3047 31.635 26.4166 31.6157 26.5212 31.5776C26.6258 31.5396 26.721 31.4834 26.8014 31.4125C26.8817 31.3415 26.9456 31.257 26.9895 31.1639C27.0334 31.0708 27.0563 30.9709 27.0571 30.8699C27.0578 30.7689 27.0363 30.6687 26.9937 30.5751C26.9512 30.4815 26.8884 30.3963 26.8091 30.3244C26.2092 29.7816 25.5269 29.2172 24.8342 28.6482L24.7861 28.6082C24.1055 28.0469 23.4111 27.4748 22.7477 26.8859C21.3761 25.671 20.2039 24.4499 19.5817 23.2181C19.14 22.3477 19.0317 21.3281 19.1521 20.4854C19.1943 20.1382 19.2963 19.7989 19.4546 19.4797C19.4887 19.4158 19.5278 19.3542 19.5714 19.2951C19.4855 19.3279 19.3978 19.3638 19.3085 19.4028C18.2617 19.8687 16.8438 21.565 18.2617 24.1132ZM23.8614 11.8505C23.6775 11.9612 23.4266 12.2288 23.2667 12.7486C23.0863 13.3345 23.0605 14.1588 23.3613 15.1522C23.7978 16.5916 24.8944 18.5231 26.1474 20.4147C27.2324 22.0428 28.3989 23.6263 29.6433 25.1604C29.7133 25.2417 29.7645 25.3347 29.7937 25.4339C29.823 25.5332 29.8297 25.6366 29.8135 25.7382C29.7974 25.8398 29.7587 25.9375 29.6996 26.0255C29.6406 26.1135 29.5625 26.1901 29.4699 26.2506C29.3773 26.3112 29.2721 26.3546 29.1605 26.3782C29.0489 26.4018 28.9331 26.4052 28.82 26.3881C28.7069 26.3711 28.5987 26.334 28.5019 26.2789C28.4051 26.2239 28.3216 26.1521 28.2563 26.0677C26.9793 24.494 25.7824 22.8694 24.6692 21.199C24.3232 20.6802 23.9898 20.1553 23.6689 19.6242C23.0972 18.4932 22.5568 17.3498 22.0482 16.1949C20.9842 13.822 22.6978 12.3549 23.6861 11.9197C23.7446 11.8941 23.803 11.871 23.8614 11.8505ZM42.4119 19.9057C42.2864 21.1267 42.2142 21.8249 41.9908 22.3139L41.9513 22.7337C41.9308 22.9368 42.0013 23.1389 42.1473 23.2955C42.2933 23.4521 42.5029 23.5504 42.7299 23.5688C42.9569 23.5871 43.1827 23.524 43.3578 23.3934C43.5328 23.2627 43.6426 23.0752 43.6632 22.8721C43.6884 22.6209 43.7141 22.3303 43.7405 22.0002C43.8419 20.7807 43.9846 19.0414 44.4057 16.8546C44.581 15.9473 45.0364 15.1599 45.5572 14.6463C45.9611 14.2511 46.3083 14.0988 46.5472 14.0604C45.2805 13.9804 43.0891 14.4617 42.7402 17.0591C42.6146 18.0059 42.5052 18.9544 42.4119 19.9041" fill="#D67D00"/>
<path d="M41.3153 11.6214C41.3161 11.7223 41.3391 11.8222 41.3831 11.9152C41.427 12.0082 41.4909 12.0926 41.5713 12.1635C41.6517 12.2344 41.7468 12.2904 41.8514 12.3284C41.956 12.3664 42.0679 12.3856 42.1807 12.3849C42.2936 12.3842 42.4052 12.3636 42.5091 12.3243C42.6131 12.285 42.7074 12.2278 42.7866 12.1559C42.8659 12.084 42.9285 11.9988 42.971 11.9053C43.0134 11.8117 43.0349 11.7116 43.0341 11.6106C43.0083 8.08129 40.0091 3.171 33.5638 3.20791C33.3358 3.20934 33.1179 3.29172 32.9579 3.43693C32.7978 3.58213 32.7088 3.77828 32.7104 3.98221C32.712 4.18614 32.8041 4.38114 32.9664 4.52433C33.1287 4.66752 33.3479 4.74717 33.5758 4.74574C38.787 4.71498 41.293 8.66413 41.3153 11.6214Z" fill="#5092FF"/>
<path d="M39.3198 15.3568C39.0922 15.358 38.8733 15.2784 38.7113 15.1354C38.5492 14.9924 38.4571 14.7977 38.4553 14.594C38.445 13.1946 37.8005 11.3338 36.4323 9.83441C35.0848 8.3581 33.0516 7.24778 30.2105 7.2647C29.9825 7.26613 29.7633 7.18649 29.601 7.0433C29.4387 6.90011 29.3467 6.7051 29.3451 6.50117C29.3435 6.29724 29.4325 6.1011 29.5925 5.95589C29.7526 5.81068 29.9705 5.7283 30.1984 5.72687C33.6153 5.70688 36.1247 7.06786 37.7627 8.86097C39.3783 10.631 40.1603 12.8332 40.1741 14.5832C40.1747 14.6842 40.1532 14.7843 40.1106 14.8778C40.0681 14.9714 40.0053 15.0565 39.926 15.1283C39.8467 15.2001 39.7523 15.2573 39.6483 15.2965C39.5443 15.3357 39.4327 15.3562 39.3198 15.3568ZM8.37891 27.0812C8.37891 26.8772 8.28837 26.6817 8.1272 26.5375C7.96604 26.3933 7.74745 26.3123 7.51953 26.3123C7.29161 26.3123 7.07303 26.3933 6.91186 26.5375C6.7507 26.6817 6.66016 26.8772 6.66016 27.0812C6.66016 28.8297 7.425 31.0365 9.02859 32.8173C10.6545 34.6196 13.1536 35.9944 16.5705 35.9944C16.7984 35.9944 17.017 35.9134 17.1781 35.7692C17.3393 35.625 17.4298 35.4294 17.4298 35.2255C17.4298 35.0216 17.3393 34.826 17.1781 34.6818C17.017 34.5376 16.7984 34.4566 16.5705 34.4566C13.7294 34.4566 11.703 33.334 10.3658 31.8515C9.00969 30.3444 8.37891 28.4775 8.37891 27.0796" fill="#5092FF"/>
<path d="M5.49829 30.0353C5.49829 29.8314 5.40775 29.6358 5.24659 29.4916C5.08542 29.3474 4.86684 29.2664 4.63892 29.2664C4.411 29.2664 4.19241 29.3474 4.03125 29.4916C3.87008 29.6358 3.77954 29.8314 3.77954 30.0353C3.77954 33.5647 6.74095 38.4934 13.1863 38.4934C13.4142 38.4934 13.6328 38.4124 13.7939 38.2682C13.9551 38.124 14.0456 37.9284 14.0456 37.7245C14.0456 37.5205 13.9551 37.325 13.7939 37.1808C13.6328 37.0366 13.4142 36.9556 13.1863 36.9556C7.97501 36.9556 5.49829 32.9941 5.49829 30.0353Z" fill="#5092FF"/>
</svg>
